<svg xmlns="http://www.w3.org/2000/svg" viewBox="0 0 32 32">
  <defs>
    <linearGradient id="flame" x1="0" y1="1" x2="0" y2="0">
      <stop offset="0%" stop-color="#FF6B00"/>
      <stop offset="100%" stop-color="#FF9A3C"/>
    </linearGradient>
  </defs>
  <!-- U shape (black) -->
  <path d="M6 4 L6 20 Q6 28 16 28 Q26 28 26 20 L26 4 L22 4 L22 20 Q22 24 16 24 Q10 24 10 20 L10 4 Z" fill="#1a1a1a"/>
  <!-- Flame (orange gradient) -->
  <path d="M16 2 C16 2 20 8 20 13 C20 16 18.5 17.5 16 17.5 C13.5 17.5 12 16 12 13 C12 11 13 9 13 9 C13 9 12 11 14 13 C14 13 14 10 16 2Z" fill="url(#flame)"/>
</svg>
